<?xml version="1.0" encoding="utf-8"?>
<!-- Generator: Adobe Illustrator 23.1.0, SVG Export Plug-In . SVG Version: 6.00 Build 0)  -->
<svg version="1.1" id="Слой_1" xmlns="http://www.w3.org/2000/svg" xmlns:xlink="http://www.w3.org/1999/xlink" x="0px" y="0px"
	 viewBox="0 0 368.28 365.89" style="enable-background:new 0 0 368.28 365.89;" xml:space="preserve">
<g>
	<path d="M184.57,229.41c-12.33,12.46-22.68,23-33.12,33.46c-27.54,27.58-55.1,55.15-82.71,82.66c-9.53,9.49-20.67,13.94-34.1,9.68
		c-12.49-3.97-19.92-12.72-22.63-25.39c-1.96-9.15,0.52-17.5,6.01-24.88c2.36-3.18,5.21-6.02,8.02-8.83
		c34.77-34.83,69.58-69.63,104.36-104.45c2.17-2.17,4.23-4.46,6.73-7.11c-2.44-2.61-4.46-4.9-6.62-7.06
		C95.13,142.05,59.76,106.61,24.31,71.24C14.94,61.9,9,51.5,12.47,37.72c6.19-24.6,33.92-33.85,52.86-17.05
		c12.75,11.31,24.44,23.81,36.51,35.88c26.94,26.95,53.82,53.97,81.44,81.67c2.6-2.4,4.88-4.35,7-6.46
		c35.63-35.58,71.28-71.15,106.84-106.81c9.88-9.9,20.91-15.47,35.25-11.27c22.37,6.56,30.85,33.22,16.25,51.41
		c-2.31,2.87-4.93,5.51-7.54,8.12c-34.58,34.63-69.16,69.25-103.82,103.8c-2.2,2.19-5.02,3.75-8.23,6.11
		c3.46,3.71,5.46,5.98,7.59,8.11c35.39,35.42,70.76,70.87,106.25,106.19c8.91,8.87,15,18.79,12.63,31.82
		c-2.31,12.73-9.75,21.67-22.16,25.81c-13.68,4.56-25.09,0.06-34.87-9.71c-33.82-33.77-67.65-67.54-101.38-101.4
		C192.9,239.73,189.31,234.94,184.57,229.41z"/>
</g>
</svg>
