<?xml version="1.0" encoding="utf-8"?>
<!-- Generator: Adobe Illustrator 23.1.0, SVG Export Plug-In . SVG Version: 6.00 Build 0)  -->
<svg version="1.1" id="Слой_1" xmlns="http://www.w3.org/2000/svg" xmlns:xlink="http://www.w3.org/1999/xlink" x="0px" y="0px"
	 viewBox="0 0 483.28 495.89" style="enable-background:new 0 0 483.28 495.89;" xml:space="preserve">
<style type="text/css">
	.st0{fill:#101010;}
	.st1{fill:#3B3B3B;}
</style>
<g>
	<path class="st0" d="M8.09,242.09c1.48,4.28,1.48,8.55,0,12.83C8.09,250.64,8.09,246.36,8.09,242.09z"/>
	<path class="st0" d="M236.27,483.1c3.97-1.5,7.94-1.49,11.91,0C244.21,483.1,240.24,483.1,236.27,483.1z"/>
	<path class="st1" d="M8.09,233.84c1.66,1.83,1.2,3.67,0,5.5C8.09,237.5,8.09,235.67,8.09,233.84z"/>
	<path class="st1" d="M8.09,257.66c1.2,1.83,1.66,3.67,0,5.5C8.09,261.33,8.09,259.5,8.09,257.66z"/>
	<path class="st1" d="M228.02,483.1c1.83-1.66,3.67-1.2,5.5,0C231.69,483.1,229.86,483.1,228.02,483.1z"/>
	<path class="st1" d="M250.93,483.1c1.83-1.17,3.67-1.6,5.5,0C254.6,483.1,252.77,483.1,250.93,483.1z"/>
	<path d="M477.77,240.28c-0.04-17.51-2.32-34.72-6.9-51.56c-11.78-43.25-33.56-80.54-66.28-111.48
		c-17.82-16.86-37.78-30.36-59.63-41.26c-40.29-20.08-83.18-25.34-127.43-21.86c-22.2,1.75-43.58,7.61-64.17,16.12
		c-36.98,15.28-68.24,38.38-93.5,69.4c-23.33,28.65-39.04,61.06-47.26,97.13c-2.44,10.73-3.46,21.59-4.51,32.48
		c0,1.53,0,3.05,0,4.58c0.75,1.83,0.75,3.67,0,5.5c0,0.92,0,1.83,0,2.75c0.78,4.28,0.78,8.55,0,12.83c0,0.92,0,1.83,0,2.75
		c0.75,1.83,0.75,3.67,0,5.5c0,1.53,0,3.05,0,4.58c1.03,4.76,0.64,9.65,1.28,14.45c2.56,19.19,7.69,37.7,15.06,55.56
		c15.08,36.54,37.79,67.56,68.33,92.66c32.04,26.34,68.53,43.16,109.44,50.39c7.06,1.25,14.21,1.12,21.25,2.29c1.53,0,3.05,0,4.58,0
		c1.83-0.75,3.67-0.75,5.5,0c0.92,0,1.83,0,2.75,0c3.97-0.76,7.94-0.76,11.91,0c0.92,0,1.83,0,2.75,0c1.83-0.75,3.67-0.75,5.5,0
		c1.22,0,2.44,0,3.67,0c5.39-0.97,10.88-0.56,16.29-1.27c19.19-2.53,37.69-7.68,55.55-15.05c37.29-15.37,68.73-38.71,94.1-70.08
		c23.14-28.61,38.59-60.94,46.85-96.84C477.41,280.18,477.81,260.29,477.77,240.28z M242.34,448.09
		C131.41,447.86,42.87,358.41,43.1,248.16c0.23-110.94,89.68-199.47,199.93-199.24c110.94,0.23,199.08,89.68,199.35,199.93
		C441.66,359.78,352.59,448.31,242.34,448.09z"/>
	<path d="M335.17,173.64c-0.15,5.88-3.12,10.29-7.14,14.29c-19.04,18.96-37.94,38.07-57.09,56.92c-3.04,2.99-2.81,4.49,0.08,7.34
		c19.13,18.87,38.04,37.96,57.09,56.92c4.78,4.75,8.04,10.08,6.78,17.05c-1.23,6.81-5.22,11.62-11.86,13.86
		c-7.1,2.39-13.21,0.26-18.36-4.84c-11.39-11.29-22.69-22.65-34.03-33.98c-8.21-8.2-16.53-16.29-24.55-24.67
		c-2.57-2.68-3.92-2.91-6.69-0.11c-19.08,19.35-38.35,38.51-57.6,57.7c-7.38,7.35-14.97,8.8-22.62,4.46
		c-9.43-5.35-11.91-17.56-5.01-25.9c3.2-3.87,6.93-7.3,10.48-10.87c16.82-16.86,33.62-33.74,50.57-50.48
		c2.32-2.29,2.18-3.47-0.05-5.69c-19.52-19.35-38.93-38.8-58.33-58.27c-6.97-7-8.43-14.42-4.53-21.89
		c5.05-9.67,17.65-12.43,26.13-5.57c2.95,2.39,5.57,5.2,8.27,7.9c17.51,17.47,35.06,34.9,52.43,52.51c2.7,2.74,4.06,3.14,7.02,0.13
		c19.05-19.38,38.37-38.49,57.57-57.73c5.32-5.33,11.31-8.14,18.95-5.83C329.99,159.09,335.21,166.06,335.17,173.64z"/>
</g>
</svg>
