<?xml version="1.0" encoding="utf-8"?>
<!-- Generator: Adobe Illustrator 23.1.0, SVG Export Plug-In . SVG Version: 6.00 Build 0)  -->
<svg version="1.1" id="Слой_1" xmlns="http://www.w3.org/2000/svg" xmlns:xlink="http://www.w3.org/1999/xlink" x="0px" y="0px"
	 viewBox="0 0 422.28 322.89" style="enable-background:new 0 0 422.28 322.89;" xml:space="preserve">
<g>
	<path d="M414.6,66.09c0,73.6,0,147.2,0,220.8c-0.21,0.62-0.48,1.23-0.61,1.86c-3.61,17.59-16.7,28.51-34.74,28.51
		c-112.7,0.05-225.41,0.07-338.11-0.13c-5.4-0.01-11.25-1.29-16.12-3.61c-13.16-6.28-19.18-17.54-19.19-31.96
		C5.77,211.3,5.8,141.04,5.8,70.78c0-1.07-0.04-2.15,0.11-3.19c0.91-6.31,7.6-9.45,13.01-6.09c1.12,0.7,2.13,1.59,3.14,2.46
		c42.51,36.33,85.04,72.66,127.52,109.02c13.55,11.6,26.83,23.53,40.58,34.88c6.68,5.51,14.81,7.35,23.58,6.51
		c9.88-0.95,17.12-6.54,24.26-12.69c53.39-45.94,106.84-91.82,160.29-137.69C405.2,58.07,409.68,58.71,414.6,66.09z"/>
	<path d="M210.44,10.09c56.16,0,112.31,0.03,168.47-0.03c10.4-0.01,19.27,3.37,26.42,11c5.24,5.6,4.96,10.37-0.88,15.34
		c-33.96,28.93-68,57.76-101.86,86.8c-26.28,22.54-52.36,45.32-78.52,68c-10.25,8.88-17.45,8.81-27.78-0.06
		C136.37,139.7,76.44,88.28,16.5,36.87c-6.53-5.6-6.85-10.38-0.83-16.47c7.12-7.2,15.81-10.36,25.91-10.35
		C97.86,10.12,154.15,10.09,210.44,10.09z"/>
</g>
</svg>
