<?xml version="1.0" encoding="utf-8"?>
<!-- Generator: Adobe Illustrator 23.1.0, SVG Export Plug-In . SVG Version: 6.00 Build 0)  -->
<svg version="1.1" id="Слой_1" xmlns="http://www.w3.org/2000/svg" xmlns:xlink="http://www.w3.org/1999/xlink" x="0px" y="0px"
	 viewBox="0 0 282.28 371.89" style="enable-background:new 0 0 282.28 371.89;" xml:space="preserve">
<style type="text/css">
	.st0{fill:#E37979;}
	.st1{fill:#FE9696;}
</style>
<g>
	<path class="st0" d="M144.66,9.07c29.14-0.29,55.38,8.55,78.6,25.96c26.44,19.83,43.09,46.13,50.31,78.5
		c5.2,23.28,2.55,45.69-5.88,67.79c-11.39,29.86-26.96,57.51-43.85,84.47c-21.07,33.63-44.13,65.86-68.57,97.11
		c-2.68,3.43-5.75,6.29-10.61,5.82c-1.84-2.15-1.23-4.75-1.23-7.19c-0.03-57.93-0.03-115.87-0.01-173.8c0-3.24-0.31-6.49,0.34-9.7
		c1.29-2.96,4.21-2.35,6.48-2.64c8.76-1.11,16.56-4.37,23.47-9.8c9.44-7.42,15.21-17.18,16.92-28.97
		c2.97-20.55-4.62-36.56-21.94-47.89c-5.4-3.53-11.51-5.16-17.84-6.21c-2.42-0.4-5.39,0.3-7.01-2.53c-0.42-1.33-0.41-2.71-0.41-4.07
		c-0.02-20.52-0.02-41.03,0.01-61.55C143.44,12.52,143.2,10.58,144.66,9.07z"/>
	<path class="st1" d="M144.66,9.07c0,23.91,0,47.83,0,71.74c-2.19,1.86-4.98,1.27-7.47,1.69c-22.99,3.88-39.49,23.26-39.47,46.59
		c0.02,22.99,16.65,42.38,39.46,46.23c2.49,0.42,5.28-0.16,7.47,1.68c0,63.91,0,127.81,0,191.72c-4.76,0.27-7.84-2.38-10.58-5.89
		c-16.13-20.63-31.61-41.73-46.41-63.35c-19.81-28.94-38.55-58.54-53.9-90.14c-8.62-17.74-16.25-35.88-19.65-55.51
		c-2.41-13.88-1.18-27.64,1.95-41.18C25.6,71.3,49.72,41.24,87.35,22.11c14.21-7.22,29.47-11.18,45.4-12.54
		C136.73,9.23,140.67,8.84,144.66,9.07z"/>
</g>
</svg>
