<?xml version="1.0" encoding="utf-8"?>
<!-- Generator: Adobe Illustrator 23.1.0, SVG Export Plug-In . SVG Version: 6.00 Build 0)  -->
<svg version="1.1" id="Слой_1" xmlns="http://www.w3.org/2000/svg" xmlns:xlink="http://www.w3.org/1999/xlink" x="0px" y="0px"
	 viewBox="0 0 167.28 238.89" style="enable-background:new 0 0 167.28 238.89;" xml:space="preserve">
<g>
	<path d="M119.9,120.99c-15.91-13.6-31.56-26.98-47.2-40.36C56.01,66.36,39.34,52.07,22.63,37.81c-4.58-3.91-7.05-8.71-6.22-14.79
		c0.84-6.18,4.25-10.58,10.09-12.85c6.01-2.34,11.54-1.13,16.41,2.98C51,20,59.05,26.92,67.11,33.81
		c28.74,24.57,57.46,49.16,86.24,73.68c5.36,4.57,8.21,9.92,6.67,17.08c-0.79,3.69-2.82,6.6-5.65,9.01
		c-37.48,32.01-74.94,64.04-112.46,96.01c-6.88,5.87-16.77,5.03-22.49-1.65c-5.97-6.98-5.09-16.68,2.22-22.93
		c30.72-26.29,61.47-52.54,92.2-78.81C115.82,124.52,117.78,122.82,119.9,120.99z"/>
</g>
</svg>
