<?xml version="1.0" encoding="utf-8"?>
<!-- Generator: Adobe Illustrator 23.1.0, SVG Export Plug-In . SVG Version: 6.00 Build 0)  -->
<svg version="1.1" id="Слой_1" xmlns="http://www.w3.org/2000/svg" xmlns:xlink="http://www.w3.org/1999/xlink" x="0px" y="0px"
	 viewBox="0 0 411.28 418.89" style="enable-background:new 0 0 411.28 418.89;" xml:space="preserve">
<style type="text/css">
	.st0{fill:#FEDD46;}
	.st1{fill:#FE3F5C;}
	.st2{fill:#008ADE;}
	.st3{fill:#A14BDA;}
	.st4{fill:#FEE675;}
	.st5{fill:#FEE15D;}
	.st6{fill:#FEE572;}
	.st7{fill:#FECC00;}
	.st8{fill:#0089DE;}
	.st9{fill:#D10763;}
	.st10{fill:#00AA5E;}
	.st11{fill:#B660E9;}
	.st12{fill:#00347B;}
	.st13{fill:#001737;}
	.st14{fill:#00DC7A;}
	.st15{fill:#F5EEE9;}
	.st16{fill:#A24BDA;}
	.st17{fill:#FCF2C8;}
</style>
<g>
	<path class="st0" d="M179.24,405.96c-28.95,0.13-56.15-6.83-81.37-20.91C62,365.01,36.56,335.68,21.54,297.38
		c-5.43-13.85-8.6-28.26-10.34-43.01c-0.1-0.81,0.22-1.8-0.81-2.29c0-1.74,0-3.49,0-5.23c0.81-1.41,0.19-2.94,0.38-4.4
		c-0.18-1.27,0.4-2.62-0.38-3.82c0-1,0-1.99,0-2.99c0.81-1.44,0.19-2.99,0.39-4.48c-0.2-1.49,0.42-3.05-0.39-4.49
		c0-1.5,0-2.99,0-4.49c0.89-7.84,1.5-15.69,3.36-23.42c3.26-13.58,7.91-26.6,14.39-38.96c0.57-1.09,1.09-2.24,2.31-2.82
		c1.7,0.08,1.55,1.48,1.84,2.57c0.7,4.67,1.5,9.32,2.31,13.98c1.56,8.93,10.4,12.36,17.44,6.62c14.54-11.85,28.76-24.11,43.1-36.19
		c11.59-9.77,23.16-19.56,34.78-29.29c9.9-8.3,19.77-16.65,29.66-24.97c6.51-5.48,5.87-13.1-1.19-17.77
		c-0.83-0.55-2.3-0.54-2.14-2.12c7.64-0.95,15.28-1.84,23-1.5c1.34,1.43,1.16,3.23,1.16,4.95c-0.03,63.75,0.09,127.5-0.05,191.24
		c-0.04,17.93,0.03,35.86,0.06,53.78c0.01,6.35,0.12,12.7-0.16,19.04c-0.5,3.41-0.6,6.83-0.01,10.26
		c0.34,17.94,0.09,35.87,0.13,53.8C180.39,402.97,180.5,404.65,179.24,405.96z"/>
	<path class="st1" d="M24.59,23.32c9.39,4.17,19.29,6.95,28.9,10.51c6.03,2.24,12.08,4.4,18.13,6.59
		C55.56,54.04,39.42,67.56,23.34,81.15c-1.38,1.16-2.61,4.09-5.44,2.13c-2.14-6.65-2.7-13.61-3.99-20.42
		c-1.54-8.14-2.64-16.35-3.52-24.59c0-2.24,0-4.49,0-6.73c0.85-4.63,3.59-7.37,8.22-8.22C20.6,23.32,22.6,23.32,24.59,23.32z"/>
	<path class="st2" d="M223.27,23.32c3.99,1.46,6.83,4.01,8.74,7.94c1.88,3.88,5.42,5.48,9.75,5.8c7.07,0.53,11.46,5.03,11.44,11.3
		c-0.02,5.74-4.37,10.48-10.09,11c-13.38,1.22-28.15-8.31-32.57-21.01c-2.23-6.41,0.79-11.91,8.26-15.04
		C220.28,23.32,221.78,23.32,223.27,23.32z"/>
	<path class="st3" d="M384.6,23.32c2.47,1.76,5.36,2.9,6.85,5.93c2.81,5.68,0.98,12.1-4.52,15.06c-5.57,2.99-12.07,1.1-15.05-4.39
		c-3.03-5.57-1.21-11.95,4.28-15.11c0.83-0.48,1.64-1,2.47-1.5C380.62,23.32,382.61,23.32,384.6,23.32z"/>
	<path class="st4" d="M10.4,226.66c1.41,1.3,0.48,2.98,0.73,4.47c-0.24,0.35-0.48,0.35-0.73,0.01
		C10.4,229.65,10.4,228.15,10.4,226.66z"/>
	<path class="st5" d="M10.4,231.14c0.24,0,0.49,0,0.73-0.01c-0.21,1.51,0.61,3.18-0.73,4.5C10.4,234.13,10.4,232.64,10.4,231.14z"/>
	<path class="st6" d="M11.13,242.37c-0.24,1.49,0.66,3.17-0.73,4.47c0-1.5,0-2.99,0-4.49C10.65,242.02,10.89,242.02,11.13,242.37z"
		/>
	<path class="st5" d="M11.13,242.37c-0.24-0.01-0.49-0.01-0.73-0.01c0-1.25,0-2.49,0-3.74C11.63,239.68,10.98,241.1,11.13,242.37z"
		/>
	<path class="st7" d="M179.25,338.05c-0.02-35-0.05-69.99-0.05-104.99c0-54.92,0.03-109.84,0.04-164.77
		c29.74-0.33,57.6,7,83.22,21.91c43.95,25.58,71.29,63.56,82.28,113.23c2.99,13.53,3.53,27.35,3.35,41.18
		c1,1.05,0.79,2.31,0.62,3.57c-0.46,1.39-0.47,2.83-0.44,4.27c-0.93,10.8-2.24,21.53-6.25,31.73c-1.63,1.64-3.71,1.96-5.86,1.96
		c-29.61,0.02-59.22,0.16-88.84-0.06c-9.65-0.03-19.31,0.44-28.95-0.25c-1.98-0.57-2.47-2.34-3.03-3.96
		c-2.5-7.18-6.81-13.25-11.6-19.01c-1.91-2.3-4.03-4.4-6.82-5.7c-3.98-1.86-8.42-1.19-11.39,1.79c-3.11,3.12-3.93,7.81-2.05,11.74
		c0.93,1.94,2.37,3.48,3.85,5c16.27,16.7,15.15,42.42-2.66,57.59C182.86,334.85,181.85,337.38,179.25,338.05z"/>
	<path class="st8" d="M347.88,248.36c0.07-1.25,0.14-2.5,0.21-3.74c1.38-1.91,3.24-2.32,5.54-2.24
		c23.93,0.77,42.54,23.63,38.89,47.9c-3.57,23.78-21.8,39.5-45.85,39.55c-8.83,0.02-17.67,0.08-26.5,0.12
		c-1.68,0.99-3.52,1.09-5.41,1.09c-20.89,0-41.78,0.01-62.66-0.02c-1.73,0-3.51,0.11-5.04-0.96c-1.2-1.47-1.08-3.26-1.09-4.98
		c-0.03-11.79-0.04-23.58,0-35.37c0-1.6-0.12-3.26,1.01-4.62c29.32-0.04,58.63-0.08,87.95-0.12c2.34,0,4.73,0.19,6.72-1.46
		c3.88-3.85,5.71-8.38,5.31-13.96c-0.41-5.77,0.74-11.53,0.67-17.32C347.73,250.94,347.43,249.63,347.88,248.36z"/>
	<path class="st7" d="M246.99,329.7c22.67,0.04,45.33,0.08,68,0.13c1.73,0,3.46,0.08,5.2,0.12c-24.78,36.91-58.7,60.85-101.82,71.56
		c-12.81,3.18-25.85,4.89-39.11,4.45c0.01-19.68,0.02-39.35,0.03-59.03c1.49-0.04,2.04,1.26,2.88,2.1c4.58,4.54,9.68,5.1,14.6,0.86
		c5.74-4.93,11.16-10.25,14.68-17.13c0.91-1.77,1.74-3.64,4.1-3.92c9.32-0.4,18.64-0.14,27.95-0.15
		C244.73,328.68,246,328.76,246.99,329.7z"/>
	<path class="st1" d="M156.25,69.8c1.3,0.69,2.71,1.24,3.89,2.09c6.51,4.7,6.59,13,0.09,18.47c-30.58,25.78-61.21,51.52-91.81,77.28
		c-5.13,4.32-10.26,8.65-15.36,13.01c-3.57,3.05-7.5,4.4-12.05,2.6c-4.47-1.77-6.7-5.29-7.41-9.93c-0.67-4.41-1.42-8.81-2.14-13.21
		c24.87-20.44,49.26-41.46,73.89-62.19c11.41-9.61,22.84-19.2,34.19-28.87c1.39-1.18,2.68-2.63,4.59-3.09
		C148.17,67.23,152.21,68.52,156.25,69.8z"/>
	<path class="st9" d="M144.13,65.95c-5.25,5.46-11.36,9.93-17.08,14.84c-8.74,7.5-17.6,14.87-26.41,22.29
		c-10.51,8.86-21.04,17.7-31.54,26.58c-8.8,7.44-17.47,15.04-26.4,22.31c-3.57,2.91-6.38,6.98-11.24,8.13c-0.26-1-0.52-2-0.78-3
		c-1.06-7.22-2.11-14.44-3.17-21.67c1.81-3.79,5.47-5.73,8.46-8.27c18.89-15.99,37.83-31.92,56.7-47.95
		c7.96-6.76,16.06-13.37,23.94-20.23c1.06-0.92,2.2-1.61,3.68-1.43C128.35,60.03,136.3,62.82,144.13,65.95z"/>
	<path class="st1" d="M120.29,57.55c-6.4,4.49-12.08,9.87-18.08,14.85c-10.59,8.78-21.05,17.7-31.56,26.57
		c-8.71,7.36-17.39,14.74-26.1,22.11c-5.67,4.8-11.36,9.57-17.05,14.36c-1.87-8.64-3.32-17.36-4.42-26.14
		c1.15-2.84,3.89-4.13,6.02-5.94C49.72,85.82,70.52,68.5,91.07,50.88c1.14-0.97,2.27-1.95,3.8-2.24
		C103.46,51.27,111.93,54.26,120.29,57.55z"/>
	<path class="st9" d="M94.87,48.64c-8.35,7.18-16.67,14.4-25.07,21.53c-8.69,7.37-17.46,14.66-26.19,21.98
		c-6.84,5.73-13.68,11.44-20.52,17.16c-1.86-8.41-3.13-16.93-4.37-25.44c16.55-13.97,33.11-27.94,49.63-41.94
		c0.99-0.84,1.94-1.52,3.27-1.49C79.47,42.87,87.25,45.54,94.87,48.64z"/>
	<path class="st3" d="M334.3,402.29c-8.87,0.13-13.89-4.17-14.12-10.59c-0.25-6.79,4.21-11.34,11.57-11.81
		c4.95-0.31,8.17-2.87,10.39-7.29c2.57-5.12,7.36-7.23,12.77-6.13c4.42,0.9,7.79,4.81,8.44,9.8c0.28,2.17-0.24,4.22-1.15,6.14
		C356.27,394.94,346.18,401.28,334.3,402.29z"/>
	<path class="st10" d="M331.56,68.79c0.07,6.07-4.91,11.21-10.97,11.34c-6.19,0.13-11.44-5.05-11.42-11.26
		c0.03-6.06,5.09-11.13,11.15-11.15C326.39,57.7,331.49,62.73,331.56,68.79z"/>
	<path class="st11" d="M31.17,345.53c6.03-0.07,11.22,4.95,11.33,10.96c0.12,6.19-5.06,11.46-11.23,11.44
		c-5.97-0.02-11.13-5.18-11.15-11.16C20.09,350.74,25.14,345.6,31.17,345.53z"/>
	<path class="st9" d="M371.04,121.24c6.16-0.03,11.18,4.87,11.27,10.99c0.09,6.2-5.14,11.45-11.32,11.38
		c-6.1-0.07-11.05-5.11-11.04-11.24C359.96,126.2,364.87,121.27,371.04,121.24z"/>
	<path class="st12" d="M116.43,174.27c20.39,0.11,38.64,12.96,45.56,32.08c2.33,6.44-0.37,12.83-6.37,15.07
		c-5.86,2.19-11.87-0.69-14.5-6.94c-4.85-11.53-13.69-17.97-25.08-17.75c-12.27,0.23-20.48,6.47-25.07,17.78
		c-2.61,6.44-8.91,9.24-14.85,6.82c-5.87-2.39-8.32-8.78-5.87-15.32C77.47,186.76,95.79,174.15,116.43,174.27z"/>
	<path class="st13" d="M214.34,329.76c-4.14,7.38-8.96,14.2-15.48,19.73c-7.51,6.37-14.11,5.55-19.58-2.57
		c-0.86-2.96-0.87-5.92-0.02-8.88c1.42-2.2,3.19-4.04,5.18-5.76c17.08-14.79,18.01-40.3,2.02-56.27c-3.35-3.34-5.77-6.92-4.82-11.84
		c1.7-8.79,12.04-12.01,18.89-5.84c7.23,6.51,12.42,14.48,15.92,23.56c0.4,1.04,0.77,2.09,1.16,3.14c1.28,0.96,1.75,2.35,2.09,3.83
		c2.86,12.71,2.15,25.14-2.9,37.24C216.21,327.5,215.58,328.83,214.34,329.76z"/>
	<path class="st14" d="M81.88,304.62c-3.15-0.2-5.64-0.05-8.06-0.84c-5.24-1.72-8.7-6.97-7.91-12.1c0.88-5.74,5.6-10.13,11.41-9.63
		c6.23,0.54,10.64-1.38,14.37-6.49c3.42-4.7,10.16-5.15,14.76-1.81c4.93,3.57,6.26,9.99,2.87,15.24
		C102.74,299.13,93.26,304.22,81.88,304.62z"/>
	<path class="st13" d="M242.32,174.26c20.46,0,38.62,12.57,45.82,31.73c2.45,6.53,0.02,12.89-5.87,15.33
		c-5.99,2.48-12.23-0.51-14.99-7.18c-4.6-11.1-13.69-17.45-24.95-17.45c-11.23,0-20.27,6.34-24.94,17.47
		c-2.82,6.72-8.92,9.65-14.97,7.18c-5.98-2.43-8.35-8.89-5.75-15.66C203.92,186.73,222.04,174.27,242.32,174.26z"/>
	<path class="st15" d="M214.34,329.76c3.76-9.02,6.25-18.3,5.94-28.2c-0.18-5.64-1.27-11.1-2.68-16.53
		c9.8,0.02,19.59,0.03,29.39,0.05c0,14.87,0,29.74,0,44.61C236.1,329.72,225.22,329.74,214.34,329.76z"/>
	<path class="st16" d="M210.42,136.32c-6.23,0.04-11.16-4.84-11.19-11.06c-0.03-6.19,4.96-11.3,11.05-11.33
		c5.97-0.03,11.24,5.19,11.31,11.19C221.66,131.2,216.59,136.29,210.42,136.32z"/>
	<path class="st17" d="M347.88,252.07c-0.17,0.01-0.34,0.02-0.51,0.04c-0.1-1.29-0.23-2.58,0.51-3.75
		C347.88,249.59,347.88,250.83,347.88,252.07z"/>
</g>
</svg>
