<?xml version="1.0" encoding="utf-8"?>
<!-- Generator: Adobe Illustrator 23.1.0, SVG Export Plug-In . SVG Version: 6.00 Build 0)  -->
<svg version="1.1" id="Слой_1" xmlns="http://www.w3.org/2000/svg" xmlns:xlink="http://www.w3.org/1999/xlink" x="0px" y="0px"
	 viewBox="0 0 425.28 421.89" style="enable-background:new 0 0 425.28 421.89;" xml:space="preserve">
<style type="text/css">
	.st0{fill:#636363;}
</style>
<g>
	<path d="M6.08,87.84c1.93-4.22,1.76-8.92,3.04-13.32c2.55-8.77,6.8-16.42,13.28-22.87c11.83-11.76,23.8-23.39,35.36-35.41
		C74.64-1.3,100.8,0.79,116.51,16.3c18.23,18,36.32,36.15,54.36,54.34c16.44,16.57,16.65,41.08,0.61,56.36
		c-3.51,3.35-7.62,5.76-12.2,7.4c-11.3,4.02-19.95,11.03-24.78,22.26c-3.16,7.35-3.66,14.9-1.61,22.66
		c5.38,20.3,16.41,37.43,29.93,53.12c16.7,19.38,35.83,35.77,58.93,47.14c8.26,4.07,16.81,7.83,26.23,7.43
		c17.49-0.75,30.7-8.86,36.32-25.7c8.37-25.07,42.45-35.2,64.33-12.99c17.79,18.06,35.83,35.88,53.75,53.82
		c1.6,1.6,3.11,3.3,4.54,5.05c10.7,13.12,11.45,33.34,1.76,47.37c-2.12,3.08-4.47,5.95-7.14,8.6
		c-11.19,11.08-22.41,22.13-33.39,33.42c-9.64,9.91-21.26,15.31-34.95,16.45c-0.55,0.05-1.04,0.09-1.25,0.71c-4.8,0-9.61,0-14.41,0
		c-1.26-0.84-2.67-0.22-3.99-0.41c-14.82-0.02-28.63-4.63-42.25-9.7c-29.61-11-56.43-27.13-82.02-45.42
		c-18.24-13.04-35.43-27.36-51.9-42.61c-16.26-15.06-31.55-31-46.13-47.68c-17.61-20.14-33.36-41.62-47.37-64.38
		c-12.34-20.04-22.8-41.02-30.14-63.46c-4.03-12.31-6.73-24.88-7.66-37.82c0-1.33,0-2.67,0-4c0.59-0.54,0.36-1.26,0.41-1.92
		c0-0.86,0-1.71,0-2.57c-0.05-0.66,0.18-1.38-0.41-1.92C6.08,90.51,6.08,89.17,6.08,87.84z"/>
	<path class="st0" d="M285.54,412.72c0.04-0.24,0.01-0.47-0.11-0.69c1.46-0.27,2.91-0.54,4.11,0.69
		C288.21,412.72,286.88,412.72,285.54,412.72z"/>
</g>
</svg>
