<?xml version="1.0" encoding="utf-8"?>
<!-- Generator: Adobe Illustrator 23.1.0, SVG Export Plug-In . SVG Version: 6.00 Build 0)  -->
<svg version="1.1" id="Слой_1" xmlns="http://www.w3.org/2000/svg" xmlns:xlink="http://www.w3.org/1999/xlink" x="0px" y="0px"
	 viewBox="0 0 298.28 295.89" style="enable-background:new 0 0 298.28 295.89;" xml:space="preserve">
<style type="text/css">
	.st0{fill:#FE6B6B;}
</style>
<path class="st0" d="M149.16,5.61C69.75,5.5,5.16,69.81,5.05,149.09c-0.1,79.25,64.33,143.71,143.77,143.83
	c79.41,0.12,144.01-64.2,144.12-143.49C293.05,70.15,228.64,5.72,149.16,5.61z M202.88,89.42c9.96-0.04,18.12,8.1,18.08,18.03
	c-0.04,9.76-8.1,17.82-17.88,17.86c-9.95,0.04-18.12-8.11-18.09-18.04C185.03,97.52,193.11,89.46,202.88,89.42z M94.88,89.42
	c9.96-0.06,18.14,8.06,18.12,17.99c-0.02,9.77-8.07,17.85-17.84,17.9c-9.95,0.06-18.15-8.07-18.13-18
	C77.05,97.55,85.11,89.47,94.88,89.42z M233.92,224.99c-2.64,1.76-5.37,0.74-7.65-2.88c-15.61-24.82-37.89-39.8-67.03-43.35
	c-27.3-3.32-51.59,4.45-72.25,22.83c-6.66,5.93-12.26,12.74-16.87,20.38c-1.03,1.7-2.08,3.47-4.39,3.7c-1.87,0.19-3.5-0.25-4.57-1.9
	c-1.31-2.02-0.93-4.01,0.25-5.96c6.35-10.59,14.26-19.83,23.99-27.46c18.39-14.43,39.26-21.82,68.49-21.9
	c31.56,1.1,60.46,17.09,80.53,48.66C236.71,220.71,236.46,223.29,233.92,224.99z"/>
</svg>
