<?xml version="1.0" encoding="utf-8"?>
<!-- Generator: Adobe Illustrator 23.1.0, SVG Export Plug-In . SVG Version: 6.00 Build 0)  -->
<svg version="1.1" id="Слой_1" xmlns="http://www.w3.org/2000/svg" xmlns:xlink="http://www.w3.org/1999/xlink" x="0px" y="0px"
	 viewBox="0 0 595.28 841.89" style="enable-background:new 0 0 595.28 841.89;" xml:space="preserve">
<g>
	<path d="M170.74,387.04c-27.76-28.81-24.12-64.55-5.23-87.56c17.27-21.04,54.34-35.81,92.4-13.35c0.08-1.08,0.27-2.02,0.19-2.94
		c-0.41-4.39,1.45-6.47,5.94-6.4c6.64,0.1,13.31-0.38,19.9,0.19c2.64,0.23,5.89,2.01,7.49,4.12c12.75,16.89,25.16,34.03,37.86,51.35
		c11.83-16.19,23.91-32.19,35.35-48.63c3.99-5.73,8.54-7.97,15.22-7.35c4.94,0.46,9.94,0.45,14.91,0.45
		c4.01-0.01,5.85,1.73,5.85,5.79c-0.04,38.36-0.05,76.73,0.01,115.09c0.01,4.02-1.71,6.02-5.62,6.72c-1.44,0.26-3.23,1.16-3.98,2.33
		c-9.75,15.16-19.35,30.42-29.06,45.78c10.34,12.48,20.77,25.04,31.17,37.62c4.51,5.46,9.03,10.93,13.39,16.51
		c2.66,3.42,1.54,6.39-2.73,7.62c-1.55,0.44-3.22,0.65-4.83,0.66c-10.3,0.06-20.6-0.19-30.89,0.1c-7.59,0.22-13.41-2.76-18.05-8.41
		c-10.05-12.24-19.96-24.6-30.11-36.76c-1.18-1.41-3.45-2.31-5.35-2.64c-2.57-0.45-5.27-0.11-8.66-0.11c0,1.81,0,3.39,0,4.98
		c0,11.63,0.03,23.25-0.01,34.88c-0.02,5.12-1.83,7.32-6.88,7.48c-11.07,0.34-22.16,0.53-33.24,0.44c-6.13-0.05-7.61-1.96-7.61-8.23
		c0-19.93,0-39.86,0-59.79c0-1.6,0-3.2,0-4.8c-0.29-0.09-0.59-0.17-0.88-0.26c-5.31,9.89-10.66,19.75-15.86,29.69
		c-0.56,1.07-0.3,2.6-0.3,3.92c-0.02,10.46-0.16,20.93,0.06,31.39c0.1,4.95-1.79,7.89-6.74,8.01c-8.8,0.22-17.61,0.31-26.4,0.02
		c-4.13-0.14-5.76-3.12-5.72-7.19c0.08-9.8,0.25-19.6-0.09-29.39c-0.12-3.47-0.97-7.2-2.54-10.27
		c-12.26-23.94-24.81-47.72-37.19-71.59c-3.8-7.33-3.11-8.37,5.19-9.05C168.48,387.41,169.28,387.25,170.74,387.04z M257.87,326.7
		c-1.8,0-3.42-0.14-5.01,0.03c-3.22,0.35-5.37-0.82-6.63-3.87c-6.3-15.26-24.92-19.1-38.32-14.29c-15.46,5.55-23.61,22.2-19.7,40.16
		c2.9,13.32,13.51,23.73,26.24,24.8c14.52,1.22,25.83-2.8,32.75-17.01c0.85-1.74,3.51-2.86,5.57-3.68c1.4-0.56,3.21-0.11,5.1-0.11
		C257.87,343.95,257.87,335.58,257.87,326.7z M362.55,344.49c-1.28,1.35-2.15,2.04-2.75,2.92c-4.68,6.85-9.92,13.41-13.8,20.69
		c-4.72,8.87-11.54,12.17-20.96,10.3c-2.77-0.55-5.88-2.08-7.69-4.16c-3.83-4.41-6.93-9.45-10.28-14.26
		c-3.46-4.96-6.86-9.96-10.87-15.79c0,15.21,0,29.21,0,43.18c7.65,0.8,8.68,1.92,8.68,9.17c0,9.96,0,19.92,0,29.87
		c0,2.91,0,5.82,0,9.05c3.59,0,6.43,0.27,9.19-0.1c1.6-0.21,3.68-1.04,4.49-2.28c7.07-10.74,14.27-21.43,20.67-32.56
		c4.85-8.44,10.16-14.95,21.12-12.95c0.71,0.13,1.51-0.28,2.18-0.42C362.55,373,362.55,359.16,362.55,344.49z M221.62,437.22
		c5.17-11.7,9.91-22.45,14.46-32.76c-9.72,0-18.98,0-28.97,0C211.94,415.36,216.55,425.76,221.62,437.22z"/>
</g>
</svg>
