<svg width="52" height="52" viewBox="0 0 52 52" fill="none" xmlns="http://www.w3.org/2000/svg">
<path d="M36.7168 51.2759H14.7168C10.8712 51.2759 7.18303 49.7482 4.46375 47.0289C1.74447 44.3097 0.216797 40.6215 0.216797 36.7759V14.7759C0.216797 10.9302 1.74447 7.24211 4.46375 4.52283C7.18303 1.80355 10.8712 0.275879 14.7168 0.275879H36.7168C40.5624 0.275879 44.2506 1.80355 46.9698 4.52283C49.6891 7.24211 51.2168 10.9302 51.2168 14.7759V36.7759C51.2168 40.6215 49.6891 44.3097 46.9698 47.0289C44.2506 49.7482 40.5624 51.2759 36.7168 51.2759ZM26.0238 42.0149H28.3428C28.3479 41.9944 28.3602 41.9764 28.3775 41.9641C28.3947 41.9518 28.4157 41.9461 28.4368 41.9479C28.4518 41.947 28.4668 41.947 28.4818 41.9479H28.5268H28.5368C29.5144 41.8745 30.483 41.7094 31.4298 41.4549C35.4711 40.3861 38.9542 37.8194 41.1718 34.2759C41.3244 34.0788 41.4096 33.8378 41.4146 33.5885C41.4197 33.3393 41.3443 33.095 41.1998 32.8919C41.0992 32.7572 40.9678 32.6485 40.8166 32.5749C40.6655 32.5013 40.4989 32.465 40.3308 32.4689C40.1815 32.4702 40.0332 32.4938 39.8908 32.5389C38.6079 32.9691 37.2629 33.1854 35.9098 33.1789C33.9132 33.1886 31.9485 32.6774 30.2098 31.6959C28.4895 30.7982 27.0187 29.4879 25.929 27.8823C24.8394 26.2768 24.1648 24.4261 23.9658 22.4959C23.703 20.5973 23.9072 18.6632 24.5609 16.8614C25.2145 15.0596 26.2978 13.4444 27.7168 12.1559C28.0341 11.8623 28.368 11.5872 28.7168 11.3319C28.9008 11.1909 29.0918 11.0449 29.2748 10.8959C29.4322 10.7694 29.5485 10.5991 29.609 10.4065C29.6696 10.2139 29.6716 10.0076 29.6148 9.81388C29.5756 9.61576 29.4773 9.43415 29.3329 9.29296C29.1885 9.15177 29.0047 9.05761 28.8058 9.02288C28.4676 8.95759 28.125 8.91782 27.7808 8.90388C27.5608 8.89488 27.3378 8.89088 27.1188 8.89088C22.9355 8.90135 18.9111 10.4946 15.8543 13.3505C12.7975 16.2064 10.9348 20.1133 10.6403 24.2862C10.3459 28.4592 11.6416 32.5889 14.2671 35.8458C16.8926 39.1026 20.6534 41.2451 24.7938 41.8429C24.8938 41.8589 25.0058 41.8679 25.1088 41.8769C25.3512 41.8849 25.5906 41.9321 25.8178 42.0169L26.0238 42.0149Z" fill="#252525"/>
</svg>
