<?xml version="1.0" encoding="utf-8"?>
<!-- Generator: Adobe Illustrator 23.1.0, SVG Export Plug-In . SVG Version: 6.00 Build 0)  -->
<svg version="1.1" id="Слой_1" xmlns="http://www.w3.org/2000/svg" xmlns:xlink="http://www.w3.org/1999/xlink" x="0px" y="0px"
	 viewBox="0 0 595.28 841.89" style="enable-background:new 0 0 595.28 841.89;" xml:space="preserve">
<g>
	<path d="M332.38,570.82c-3.78-1.64-7.89-1.42-11.85-2.01c-77.04-11.48-139.24-67.45-158.27-142.52
		c-25-98.6,31.96-200.17,129.05-230.04c20.77-6.39,42.04-9.24,63.77-8.36c3.97,0.16,7.96,0.61,11.86,1.37
		c4.97,0.98,8.19,4.36,9.35,9.15c1.15,4.75,0.03,9.26-3.93,12.51c-5.97,4.89-12.41,9.2-17.99,14.58
		c-33.97,32.79-49.14,72.8-43.45,119.6c5.77,47.43,30.72,83.02,72.21,106.37c27.07,15.24,56.53,19.92,87.37,15.64
		c8.41-1.17,16.54-3.4,24.63-5.89c6.3-1.94,11.87-0.3,15.14,4.09c3.45,4.63,3.3,10.29-0.33,16.01c-4.34,6.84-8.98,13.48-14.15,19.72
		c-26.14,31.53-58.96,52.74-98.53,63.38c-10.96,2.95-22.12,4.85-33.45,5.7c-0.77,0.06-1.8-0.48-2.24,0.71
		C351.84,570.82,342.11,570.82,332.38,570.82z"/>
</g>
</svg>
