<?xml version="1.0" encoding="utf-8"?>
<!-- Generator: Adobe Illustrator 23.1.0, SVG Export Plug-In . SVG Version: 6.00 Build 0)  -->
<svg version="1.1" id="Слой_1" xmlns="http://www.w3.org/2000/svg" xmlns:xlink="http://www.w3.org/1999/xlink" x="0px" y="0px"
	 viewBox="0 0 404.28 408.89" style="enable-background:new 0 0 404.28 408.89;" xml:space="preserve">
<style type="text/css">
	.st0{fill:#F6E051;}
</style>
<g>
	<path class="st0" d="M199.63,394.82c-4.63-2.04-6.99-5.93-8.98-10.37c-7.2-16-14.59-31.92-21.9-47.87
		c-0.51-1.11-0.91-2.27-1.65-4.17c12.09,2.88,23.7,4.72,35.51,4.7c11.81-0.02,23.44-1.74,35.81-4.83
		c-3.66,8.03-6.87,15.14-10.12,22.23c-4.72,10.3-9.61,20.52-14.13,30.9c-1.94,4.46-4.58,7.86-9.28,9.41
		C203.12,394.82,201.38,394.82,199.63,394.82z"/>
	<path class="st0" d="M11.07,200.27c2.04-4.64,5.94-6.98,10.38-8.97c16.01-7.19,31.92-14.6,47.88-21.91
		c1.11-0.51,2.28-0.9,4.11-1.62c-2.82,12.07-4.66,23.68-4.66,35.49c0,11.81,1.85,23.43,4.72,35.72c-8.5-3.88-16.18-7.38-23.85-10.89
		c-9.51-4.35-18.95-8.85-28.54-13.02c-4.39-1.91-8.03-4.35-10.04-8.82C11.07,204.26,11.07,202.27,11.07,200.27z"/>
	<path class="st0" d="M91.15,203.09c0.07-61.42,50.26-111.41,111.74-111.3c61.42,0.11,111.38,50.35,111.21,111.82
		c-0.16,61.41-50.43,111.32-111.92,111.13C140.95,314.55,91.08,264.4,91.15,203.09z"/>
	<path class="st0" d="M136.73,86.87c-21.54,12.55-38.11,29.2-50.61,50.62c-4.19-11.24-8.19-21.94-12.17-32.65
		c-2.95-7.93-5.87-15.86-8.81-23.79c-1.78-4.78-1.73-9.27,2.12-13.13c3.85-3.86,8.34-3.91,13.12-2.14
		c17.95,6.67,35.91,13.33,53.86,20C134.93,86.04,135.59,86.37,136.73,86.87z"/>
	<path class="st0" d="M136.97,319.76c-14.76,5.48-28.74,10.68-42.72,15.86c-5.13,1.9-10.24,3.87-15.43,5.58
		c-4.34,1.43-8.33,0.7-11.68-2.67c-3.26-3.29-4-7.35-2.53-11.4c6.87-18.94,13.98-37.79,21.01-56.66c0.11-0.3,0.4-0.54,0.75-1
		C98.7,290.52,115.25,307.22,136.97,319.76z"/>
	<path class="st0" d="M268.35,319.77c21.72-12.62,38.26-29.31,50.75-50.74c4.16,11.12,8.13,21.7,12.07,32.3
		c3.04,8.16,6.05,16.32,9.05,24.49c1.72,4.68,1.45,9.12-2.19,12.82c-3.54,3.6-7.88,3.99-12.43,2.32
		C306.72,334,287.85,326.99,268.35,319.77z"/>
	<path class="st0" d="M268.41,86.78c11.95-4.44,23.36-8.69,34.76-12.93c7.34-2.73,14.67-5.49,22.03-8.18
		c4.66-1.7,9.05-1.49,12.78,2.24c3.73,3.73,3.97,8.13,2.25,12.78c-6.68,18.08-13.41,36.14-20.13,54.2
		c-0.26,0.69-0.59,1.35-1.08,2.44C306.57,116,289.94,99.27,268.41,86.78z"/>
	<path class="st0" d="M394.23,203.23c-0.4,4.99-2.75,8.44-7.29,10.5c-13.14,5.97-26.25,12.03-39.37,18.06
		c-4.07,1.87-8.11,3.82-12.22,5.61c-0.92,0.4-2.01,1.55-3.01,0.6c-0.77-0.73-0.03-1.87,0.2-2.82c2.69-11.31,4.16-22.78,3.87-34.4
		c-0.24-9.96-1.47-19.84-3.9-29.54c-0.24-0.95-0.93-2.07-0.13-2.81c0.86-0.79,1.89,0.19,2.71,0.56
		c17.54,8.03,35.06,16.11,52.58,24.2C391.98,195.18,393.85,198.75,394.23,203.23z"/>
	<path class="st0" d="M237.3,74c-22.97-5.98-46.19-6.13-69.24,0.04c-0.94-1.58-0.01-2.53,0.4-3.43
		c7.91-17.32,15.82-34.65,23.88-51.91c3.23-6.93,10.3-8.94,16.49-5.05c1.65,1.03,2.84,2.42,3.64,4.15
		c8.27,17.98,16.53,35.97,24.79,53.95C237.51,72.31,237.86,72.86,237.3,74z"/>
</g>
</svg>
